<?xml version="1.0" encoding="utf-8"?>
<!-- Generator: Adobe Illustrator 24.1.2, SVG Export Plug-In . SVG Version: 6.00 Build 0)  -->
<svg version="1.1" id="svg" xmlns="http://www.w3.org/2000/svg" xmlns:xlink="http://www.w3.org/1999/xlink" x="0px" y="0px"
	 viewBox="0 0 400 477.3" style="enable-background:new 0 0 400 477.3;" xml:space="preserve">
<style type="text/css">
	.st0{fill-rule:evenodd;clip-rule:evenodd;fill:#FFAA01;stroke:#FFAA01;stroke-width:2;stroke-miterlimit:10;}
</style>
<g id="svgg">
	<path id="path0" class="st0" d="M194.8,6.8c-3.7,0.5-8.5,1.2-11.2,1.8c-1.4,0.3-4.7,0.9-7.2,1.4s-6.2,1.2-8.2,1.8
		c-17.7,4.8-20.7,5.8-22.9,7c-0.5,0.3-1.2,0.5-1.5,0.5s-1.8,0.6-3.3,1.3c-1.5,0.7-3.1,1.5-3.7,1.6c-0.6,0.2-1.6,0.7-2.4,1.3
		c-0.8,0.5-2.5,1.3-3.8,1.8s-2.9,1.2-3.5,1.6s-2.5,1.4-4.2,2.2c-1.7,0.8-3.7,1.9-4.5,2.5c-0.8,0.6-2,1.3-2.7,1.5s-2.5,1.4-4.1,2.5
		c-3.4,2.5-4.5,3.3-8.6,6c-1.7,1.1-3.3,2.5-3.5,2.9c-0.2,0.5-1,1.2-1.8,1.5c-0.8,0.4-2.7,1.8-4.4,3.2c-1.6,1.4-3.8,3.1-4.9,3.9
		s-3,2.6-4.2,4.1c-1.3,1.5-2.5,2.7-2.8,2.7s-1.2,0.9-2.1,2.1c-0.9,1.2-2.6,3.1-3.9,4.3s-3.1,3.2-3.9,4.5s-1.6,2.3-1.8,2.3
		c-0.5,0-8.1,10.3-8.9,12.2c-0.2,0.5-0.9,1.2-1.4,1.6s-1.3,1.4-1.7,2.4s-1.2,2.4-1.7,3.1s-1.8,2.9-2.8,4.8s-2.1,3.6-2.3,3.7
		s-0.4,0.5-0.4,0.9s-0.4,1.3-1,2c-0.5,0.7-1.3,2.2-1.7,3.2c-1,2.8-2.6,5.9-3.2,6.5c-0.3,0.3-0.7,1.1-0.8,1.9s-1,3.1-1.8,5.3
		c-0.9,2.1-1.9,5-2.4,6.5c-0.4,1.4-1.1,3.5-1.5,4.6c-0.4,1.1-1.3,4.4-2,7.4s-1.4,5.6-1.6,5.8s-0.4,1.7-0.6,3.4s-0.5,3.5-0.7,4.2
		s-0.7,3.8-1.1,6.8c-0.4,3.1-1,7-1.2,8.6c-0.9,5.9,0.9,37.5,2.4,41.2c0.2,0.6,0.5,2.5,0.7,4.4s0.5,3.9,0.8,4.6
		c0.3,0.7,0.6,2.2,0.8,3.4s0.9,4.8,1.6,7.9c1.8,7.7,1.4,11-1.7,12.1c-5.1,1.9-6.5,6.3-5.2,15.5l0.3,2.1l1.8-0.3
		c1-0.1,2.6-0.8,3.6-1.4s2.3-1.4,3-1.7c1.1-0.5,4.3-2.6,7.9-5.4c0.5-0.4,1.6-1,2.4-1.2C50,249,51.7,248,53,247s2.6-1.8,2.9-1.8
		c0.3,0,0.7-0.3,1-0.6c0.3-0.4,1.9-1.3,3.5-2c1.6-0.8,3.4-1.8,4-2.3s1.7-1.2,2.5-1.6c0.8-0.4,2-1.2,2.8-1.8s1.8-1.2,2.4-1.4
		s1.5-0.7,2.2-1.3c0.6-0.5,2-1.4,3-2c2.6-1.4,4-2.3,8.6-5.3c4.8-3.2,8.2-5.2,9-5.2c0.5,0,3.3-2.3,6.4-5.1c0.5-0.5,1.5-1,2.1-1.1
		s1.2-0.5,1.2-0.8s0-0.7,0-0.8c0-0.2-0.7-0.6-1.5-0.9c-0.9-0.3-2-1-2.7-1.5c-3.1-2.4-10.4-3-13.7-1c-1.1,0.7-4.5,2.7-7.5,4.4
		c-3,1.8-5.7,3.3-5.9,3.3c-0.2,0-0.9,0.6-1.6,1.4c-0.8,0.9-1.9,1.7-3.5,2.2c-1.3,0.4-3.5,1.7-4.9,2.8c-1.5,1.1-3.1,2.2-3.6,2.4
		s-1.4,0.7-2,1.1c-1.4,1.1-4.3,1.5-5.5,0.7c-1.5-1-4.2-12.9-5.3-22.6c-0.3-3-0.9-7.1-1.2-9c-1-5.3-0.7-33.5,0.4-36.2
		c0.4-1,0.8-3.5,1-5.6s0.5-4.3,0.7-4.8s1-3.6,1.7-6.8c1.8-8.3,5.2-18.8,6.5-20.4c0.3-0.3,1-2.2,1.7-4.1c0.6-1.9,1.6-4.2,2.3-5
		s1.2-1.7,1.2-2.1c0-0.9,1.4-3.7,2.3-4.7c0.4-0.4,0.9-1.3,1-1.8s1.1-2.2,2.1-3.6s2.1-3.2,2.4-3.9c0.3-0.7,0.8-1.4,1-1.5
		c0.2-0.2,1.2-1.7,2.1-3.3c2-3.8,3.3-5.6,4.8-6.6c0.7-0.5,1.3-1.2,1.4-1.6c1-3.2,20.5-23.4,24.4-25.4c0.8-0.4,2-1.3,2.5-1.9
		c0.9-1,4.6-4,8.4-6.8c2.1-1.6,6.4-4.2,8-5c0.8-0.4,2-1,2.7-1.5s1.4-0.9,1.5-0.9c0.2,0,0.9-0.5,1.7-1.1c1.3-1.1,4.8-2.9,5.5-2.9
		c0.2,0,0.6-0.2,0.9-0.6c0.3-0.3,2-1.2,3.6-2.1c1.6-0.8,3.3-1.8,3.6-2.1c0.4-0.3,2.7-1.2,5.3-1.9c2.5-0.7,4.9-1.5,5.4-1.8
		c2-1.1,6.2-2.6,9.7-3.5c11.2-3,21.3-5.2,25.8-5.8c1.6-0.2,4.4-0.6,6.1-0.9c4.4-0.7,28.9-0.7,34.6,0c2.3,0.3,5.7,0.7,7.6,0.8
		c4.4,0.4,13.7,2.1,16,3c1,0.3,2.9,0.8,4.2,1c2.6,0.4,8.5,2.3,14,4.4c1.8,0.7,5,1.8,7.1,2.6c2.2,0.7,4.2,1.6,4.6,1.9
		c0.4,0.3,1.4,0.8,2.3,1.1s2.4,1.1,3.4,1.7c1,0.7,2.9,1.6,4.3,2.1s3.1,1.4,3.7,1.9s1.6,1.1,2,1.3c0.9,0.3,6.4,3.9,10.1,6.7
		c1.1,0.8,2.7,2,3.6,2.5c1.4,0.9,3.8,2.8,7.8,6.2c0.5,0.5,1.4,1,2,1.3s2.4,1.8,4.1,3.5c1.7,1.6,4.3,4.2,5.8,5.7
		c2.3,2.2,6.3,6.5,10.4,11c0.5,0.5,1.5,1.9,2.3,3.1s2.6,3.3,4,4.8c1.7,1.8,2.9,3.5,3.5,5c0.5,1.3,1.3,2.7,1.8,3.3
		c0.5,0.6,1.3,1.8,1.9,2.9c0.5,1,1.2,2.1,1.5,2.4c0.8,0.9,3.6,5.6,4.9,8.3c3.3,7,3.9,8.4,4.4,10c0.3,1,0.9,2.2,1.4,2.9
		c0.5,0.6,1.1,1.8,1.2,2.6c0.1,0.8,0.5,1.9,0.8,2.5c0.3,0.6,0.5,1.3,0.5,1.6s0.4,1.3,0.8,2.2c1.4,3,4.4,15.3,6.4,27.2
		c2.5,14.1,2.3,37-0.4,51.6c-0.7,3.7-1.4,7.9-1.6,9.3c-0.2,1.4-0.6,2.9-0.8,3.5c-0.2,0.5-0.7,2.9-1.2,5.4c-0.4,2.4-1.3,5.5-1.8,6.8
		c-0.6,1.3-1.4,3.8-1.8,5.5c-1.5,5.5-2,7-2.7,8.3c-0.4,0.7-0.9,2.1-1,3.1s-0.9,3.1-1.7,4.6c-0.8,1.5-1.6,3.5-1.9,4.3
		c-0.4,1.5-1,2.9-5.4,12.1c-1.2,2.5-2.1,4.6-2.1,4.8s-0.5,1.1-1.2,2.1c-0.6,1-1.3,2.5-1.4,3.2c-0.2,0.8-2,4.3-4.2,7.9
		c-2.1,3.6-4,7-4.2,7.6s-0.5,1.4-0.8,1.7c-1.1,1.2-4.2,6-5,7.5c-0.4,0.9-1.3,2-1.8,2.5c-0.6,0.5-1,1.1-1,1.3c0,0.4-3.1,5-3.6,5.3
		c-0.2,0.1-0.5,0.7-0.6,1.4c-0.1,0.6-0.6,1.5-1,1.9s-1.4,1.6-2.1,2.7s-1.9,2.8-2.6,3.8s-1.3,1.9-1.3,2.1c0,0.5-2,3.3-4.4,6.2
		c-1.1,1.3-2.3,2.9-2.6,3.6c-0.4,0.6-1.2,1.7-1.9,2.4c-0.7,0.7-1.7,1.9-2.3,2.8c-0.5,0.8-1.5,2.1-2.1,2.8c-3.4,4-4.4,5.2-4.8,6
		c-0.6,1.2-4,5.2-4.6,5.6c-0.3,0.2-1.3,1.4-2.2,2.7c-0.9,1.3-1.8,2.4-2,2.4s-0.7,0.6-1,1.3c-0.4,0.7-2.1,2.8-3.9,4.6
		c-1.8,1.8-4.1,4.2-5,5.3c-1,1.1-2.6,2.8-3.5,3.8s-1.7,1.9-1.7,2.1s-1.8,2.2-4,4.5s-4.2,4.4-4.5,4.7c-0.3,0.3-1.5,1.5-2.7,2.6
		s-3.5,3.4-5.1,5.1c-1.6,1.6-3.2,3.3-3.7,3.8c-0.4,0.4-2.6,2.8-4.8,5.3c-2.2,2.5-4.4,4.6-4.7,4.7c-0.4,0.1-1.7,1.3-2.9,2.7
		c-3.4,3.8-7.3,7.5-8.1,7.8c-0.4,0.1-0.9,0.6-1.2,1.2c-0.4,0.8-8.2,8-9.6,8.9c-0.3,0.2-1,1-1.6,1.8s-1.4,1.5-1.7,1.5
		s-0.8,0.5-1.2,1.2c-0.3,0.7-1.3,1.7-2.2,2.2c-0.9,0.6-1.6,1.3-1.6,1.6c0,0.3-0.6,1-1.4,1.4s-1.7,1.3-2,1.9
		c-1.9,3.1-6.8,4.8-8.8,3.2c-0.6-0.5-1.8-1.4-2.6-1.9s-1.7-1.3-1.9-1.8c-0.2-0.4-1.5-1.7-2.8-2.8c-2.8-2.3-4.2-3.6-5.4-5
		c-0.5-0.5-3-3-5.6-5.4s-5.6-5.2-6.6-6.2s-2.7-2.5-3.8-3.4c-2.5-2-6-5.7-6.8-7.1c-0.4-0.6-1.1-1.3-1.6-1.5s-2.2-1.7-3.6-3.3
		s-4.7-5-7.3-7.5c-2.5-2.6-6.5-6.7-8.9-9.2c-5.2-5.5-6.1-6.4-7.8-8c-0.7-0.7-1.8-2-2.3-2.9c-0.6-0.9-1.6-2.3-2.4-3.1
		c-0.7-0.8-2.8-3.1-4.6-5.2s-3.5-4-3.8-4.2s-1.4-1.6-2.6-3c-1.2-1.4-2.7-3.2-3.4-3.9c-0.7-0.7-1.4-1.6-1.5-2s-0.7-1-1.4-1.4
		c-1.1-0.7-4.8-5.4-8.1-10.2c-0.8-1.2-2-2.8-2.6-3.4c-0.6-0.7-1.7-2-2.4-3c-0.7-1-1.9-2.6-2.6-3.6s-2-2.8-3-4.1
		c-0.9-1.3-2.1-2.7-2.7-3.2c-0.5-0.4-1.2-1.4-1.4-2.3c-0.2-0.8-1.1-2.3-2-3.4s-1.7-2.3-1.8-2.7c-0.1-0.4-0.7-1-1.2-1.4
		s-1.4-1.6-1.9-2.8c-0.5-1.2-1.1-2.3-1.4-2.4c-0.8-0.5-3.7-6.7-3.7-8c0-1.7,1.3-3.3,3.5-4.2c1-0.4,1.8-1,2-1.3
		c0.1-0.3,1.4-1.1,3-1.8c1.5-0.7,3-1.5,3.2-1.8c0.3-0.3,1.5-1.1,2.8-1.8s3.6-2,5.2-3.1c3.8-2.6,9-5.9,11-7c0.9-0.5,2.2-1.4,2.9-2
		c0.7-0.6,1.8-1.2,2.5-1.4c0.7-0.1,2.3-1.2,3.5-2.3c1.3-1.1,3-2.4,3.9-2.8s2-1,2.6-1.2c1.6-0.7,1.4-5.9-0.3-11
		c-0.9-2.8-3.3-3.4-5.3-1.2c-0.6,0.6-1.8,1.5-2.7,1.8c-1.9,0.8-10.9,6.1-12,7.1c-0.5,0.4-1,0.7-1.2,0.7s-0.8,0.4-1.2,0.8
		c-0.4,0.5-1.7,1.3-2.8,1.8c-2.8,1.3-7.9,4.6-8.5,5.4c-0.3,0.4-1.1,0.9-1.9,1.2c-0.8,0.3-2.6,1.3-4.1,2.2c-1.5,1-2.9,1.8-3.2,1.8
		s-0.8,0.4-1.2,0.9c-0.4,0.5-1.3,1.1-2,1.4c-1.1,0.5-3.4,2-4.5,2.9c-0.3,0.2-1,0.6-1.6,0.9s-1.9,1.1-2.8,1.8c-1,0.7-2.6,1.6-3.6,2
		s-2.3,1.1-2.8,1.7c-1,1.1-7.1,4.9-7.9,4.9c-0.2,0-1.2,0.6-2.1,1.4c-0.9,0.8-1.8,1.4-2.1,1.4c-0.2,0-1,0.5-1.7,1.1s-1.7,1.3-2.1,1.4
		c-0.4,0.1-1.8,1-3,1.8s-2.9,2.1-3.7,2.6c-2,1.3-2.7,3.1-2.7,6.7c0,3.3,0.6,7.9,1.1,8.3c0.5,0.5,5.4-1.4,7.5-2.9
		c1.1-0.8,2.6-1.7,3.4-2.1c0.8-0.4,1.8-1,2.2-1.5c1.5-1.5,8.1-5.1,9.9-5.5c2.4-0.5,3.4-0.1,5.3,2.2c1.7,2,2,2.6,5.1,7.7
		c1.1,1.8,2.5,3.7,3.1,4.3c0.6,0.6,1.2,1.3,1.2,1.6c0,0.6,4,6.5,5.8,8.7c0.7,0.8,1.9,2.3,2.7,3.4c0.8,1.1,2.5,3.2,3.7,4.7
		s2.2,2.9,2.2,3.2s0.6,1.1,1.4,1.9c3.2,3.3,5,5.5,5.7,7c0.4,0.9,1.4,2.2,2.2,2.9c0.7,0.7,2.1,2.2,2.9,3.3c0.9,1.1,2.3,2.8,3.2,3.8
		c0.9,0.9,2.2,2.6,3,3.6c0.8,1.1,3,3.6,5,5.8c2,2.1,3.9,4.4,4.3,5c0.4,0.7,2,2.5,3.7,4.2c1.6,1.7,4,4.3,5.3,5.8
		c2.4,2.9,4.9,5.4,9.2,9.5c1.3,1.2,2.9,3,3.5,3.8s2,2.2,3.2,2.9c1.3,0.9,2.4,2.1,3,3.2c0.5,1,1.3,2,1.8,2.4c1.2,0.8,2.4,2,12.9,12.3
		c4.8,4.8,9.5,9,10.3,9.4c0.9,0.5,2,1.6,2.9,2.9c0.7,1.1,2.1,2.7,3.1,3.5s3.6,3.2,5.9,5.4c2.3,2.2,5,4.7,6,5.6s3.4,3.1,5.3,5
		c7,6.8,8.6,6.7,16.1-0.3c2.2-2,4.7-4.3,5.6-5c0.9-0.8,3.6-3.4,6.1-5.8s5-4.7,5.7-5s1.4-1,1.6-1.6c0.5-1.2,3.8-4.7,4.4-4.7
		c0.2,0,2.1-1.8,4.3-3.9c3.2-3.2,8-7.9,13-12.8c0.4-0.4,1.6-1.5,2.7-2.5s2.3-2.1,2.6-2.4c0.4-0.3,1.2-1.4,1.9-2.4
		c0.7-1,1.9-2.2,2.7-2.6s2.3-1.8,3.4-3s4.8-5.1,8.2-8.6s6.5-7,6.9-7.7s1.1-1.4,1.5-1.5c0.8-0.3,4.1-4,5-5.6c0.3-0.7,1.1-1.5,1.7-1.8
		s1-0.7,1-0.8c0-0.2,1.5-2,3.3-4.1s3.8-4.4,4.4-5.1s2.2-2.5,3.7-4c1.4-1.5,2.9-3.2,3.2-3.9c0.4-0.7,1-1.5,1.5-1.8s1.2-1.3,1.8-2.3
		c0.5-1,2.3-3.3,4-5.1c1.7-1.8,3-3.6,3-3.9s0.5-1.1,1.2-1.8c0.7-0.6,1.6-1.8,2.1-2.5s1.2-1.6,1.5-1.9c0.3-0.4,1.3-1.6,2.2-2.8
		c0.9-1.2,2.1-2.7,2.6-3.4c0.6-0.7,1.2-1.7,1.5-2.4c0.3-0.6,0.8-1.2,1.1-1.4c0.3-0.1,1.3-1.6,2.2-3.4c0.9-1.7,1.7-3.2,1.9-3.2
		c0.2-0.1,1.2-1.5,2.3-3.1c1.1-1.6,3.2-4.7,4.6-6.7c2.9-4.1,6.2-9.6,7.8-12.8c0.6-1.1,1.6-2.7,2.3-3.4c0.7-0.7,1.5-2.1,1.8-3.1
		s1-2.4,1.5-3.2c1.3-1.9,2.9-4.8,3.6-6.2c0.3-0.7,0.9-1.4,1.2-1.7s0.7-0.8,0.7-1.1c0-0.3,0.6-1.6,1.2-2.9c0.7-1.3,1.7-3.8,2.3-5.6
		c0.6-1.8,1.4-3.8,1.9-4.4c0.4-0.6,1.1-2.2,1.6-3.6s1.4-3.6,2.1-4.9s1.2-2.6,1.2-2.9s0.4-1.2,1-2c0.5-0.8,1-1.7,1-2s0.2-0.8,0.5-1
		s0.8-1.6,1-2.9c0.8-4.1,1.6-6.6,2.4-7.3c0.4-0.4,0.9-1.5,1-2.7c0.2-1.1,0.6-3.1,1-4.3c1.7-5.1,2.8-9.3,3.8-14.2
		c0.6-2.9,1.3-5.5,1.6-5.8s0.7-1.9,0.8-3.4c0.1-1.5,0.4-4,0.7-5.4c0.2-1.4,0.7-4.7,1-7.2s0.8-6,1-7.8c1-7.4,0.2-32.5-1.2-40.3
		c-0.7-3.9-1.5-8.5-1.9-10.4c-0.3-1.9-1.1-5.3-1.8-7.6c-0.7-2.3-1.2-4.5-1.2-4.9c0-1-2.3-7.9-5-14.9c-1.9-4.9-3.4-8.1-9.3-20.2
		c-1.4-2.8-2.2-4.2-4.2-7.4c-0.7-1.1-1.6-2.7-2.1-3.5c-0.4-0.8-1.3-1.9-1.8-2.3c-0.6-0.4-1.4-1.7-1.9-2.7s-1.3-2.3-1.8-2.9
		c-0.5-0.5-1.2-1.6-1.6-2.3c-0.6-1.1-5.1-6.7-5.9-7.3c-0.2-0.1-0.8-0.9-1.3-1.7c-0.6-0.8-2-2.5-3.3-3.6c-1.2-1.1-2.9-3-3.8-4.2
		s-1.8-2.1-2.1-2.1s-1.8-1.4-3.3-3.2s-2.9-3.2-3-3.2s-1.8-1.3-3.6-2.9c-1.8-1.6-5.1-4.2-7.3-5.8c-2.2-1.6-4.6-3.5-5.3-4.1
		c-0.7-0.6-1.5-1.2-1.8-1.2s-1.7-1.1-3.3-2.5c-1.7-1.5-4-3.1-6-4c-1.8-0.8-3.9-2-4.8-2.5c-0.9-0.6-2.7-1.5-4-2.1s-3.7-1.8-5.2-2.7
		c-1.5-0.9-3.8-2-5-2.5s-3.1-1.3-4.2-1.8c-3.7-1.7-5-2.2-5.7-2.2c-0.4,0-1.7-0.6-2.9-1.2c-1.2-0.7-3.5-1.5-5-1.8s-3.6-0.9-4.6-1.3
		c-2.8-1.2-20.7-5.4-24.6-5.8c-1.1-0.1-2.4-0.4-2.8-0.6c-0.4-0.2-2.3-0.5-4.2-0.8c-1.9-0.2-4.6-0.6-6-0.8
		C226.2,6.4,198.2,6.4,194.8,6.8 M201.6,76c-1.7,0.1-3.4,0.4-3.8,0.7c-0.4,0.2-2.3,0.6-4.2,0.7s-4.1,0.5-5,0.8s-2.3,0.6-3.2,0.6
		s-2.1,0.4-2.8,0.8s-2,0.9-3,1.1c-1,0.1-2.3,0.6-3,1s-1.8,0.7-2.5,0.7s-1.6,0.3-1.9,0.6c-0.8,0.8-9,4.6-9.9,4.6
		c-0.4,0-0.7,0.3-0.7,0.7c0,0.8-3,2.5-4.3,2.5c-0.4,0-1.2,0.5-1.9,1.2s-2,1.6-3,2.1s-3.2,2.2-5,3.9c-8.6,8.2-13.9,13.6-13.9,14.1
		c0,0.3-0.8,1.4-1.7,2.4s-1.9,2.3-2,2.9c-0.2,0.6-0.8,1.8-1.4,2.6c-0.6,0.8-1.8,2.6-2.5,4.1c-0.8,1.5-1.8,3.2-2.3,3.8
		c-0.5,0.6-0.8,1.4-0.8,1.7c0,0.4-0.4,1-0.8,1.4s-0.8,1.2-0.8,1.8c0,1.8-1.5,6.2-2.6,7.5c-0.6,0.8-1.1,2-1.4,3.9
		c-0.2,1.5-0.6,3.4-0.8,4.2c-0.2,0.8-0.4,2.6-0.4,4c0,2.1-0.2,2.9-1,4.2c-1.5,2.5-1.5,18.4,0,21.3c0.8,1.6,1,2.4,1,5.2
		c0,2.4,0.2,3.7,0.7,4.6c0.5,0.9,0.7,2.1,0.6,3.8c-0.1,2.3,0,2.5,1.1,3.3c1.4,1,2.2,2.8,2.6,5.6c0.2,1.3,0.7,2.7,1.6,4
		c0.7,1.1,1.3,2.1,1.3,2.4c0,0.2,0.3,0.9,0.7,1.5c1.9,2.7,3.3,5.1,3.3,5.5c0,0.3,0.5,1.1,1,1.7c0.6,0.7,1.4,1.9,1.9,2.8
		c1.7,3,3.7,5.5,6.3,7.9c3,2.8,3.8,3.6,6.9,6.9c1.3,1.4,2.7,2.6,3.1,2.7c0.4,0.1,1,0.7,1.4,1.2c0.4,0.6,2,1.9,3.7,3s3.3,2.3,3.6,2.8
		c0.3,0.4,0.7,0.8,1,0.8c0.6,0,7.7,4.1,8,4.7c0.2,0.3,0.7,0.5,1.1,0.5c1.2,0,5.1,1.5,6.2,2.4c0.6,0.5,1.5,0.8,2.1,0.8
		s1.8,0.3,2.6,0.8c0.9,0.4,2.3,0.9,3.1,1s1.6,0.5,1.7,0.8c0.1,0.3,1.1,0.7,2.3,0.8c1.1,0.2,3.1,0.5,4.5,0.8c1.3,0.3,3.6,0.6,5.1,0.6
		c2.3,0,2.9,0.2,3.9,1l1.2,1h11.1c8.7,0,11.2-0.1,11.9-0.6c0.5-0.3,2.1-0.8,3.7-1c1.5-0.3,4.1-0.7,5.6-1s4-0.7,5.5-0.8
		c2.1-0.2,2.7-0.4,2.9-1c0.1-0.4,0.7-0.9,1.3-1s1.5-0.6,2.1-0.9c0.5-0.3,1.7-0.7,2.6-0.8c0.9-0.1,2.4-0.7,3.4-1.3s2.6-1.3,3.5-1.4
		c1-0.1,1.9-0.5,2.2-0.8c0.2-0.3,1.2-0.9,2.1-1.3c0.9-0.4,2.3-1.4,3.2-2.1c0.8-0.7,2.5-1.8,3.7-2.4c3.3-1.8,6.5-4.1,8.6-6.2
		c1-1,2.5-2.5,3.2-3.2c3.3-3.4,10.9-10.5,11.7-11c0.6-0.4,1-1,1-1.6s0.8-1.9,1.8-3.1c1-1.2,1.9-2.5,2-3s1-1.9,1.8-3.2
		s1.7-2.9,1.8-3.7c0.2-0.8,0.7-2,1.3-2.7c1.3-1.7,3.3-6.3,3.3-7.5c0-0.5,0.3-1.3,0.7-1.9c0.4-0.6,0.8-2,1-3.6c0.1-1.4,0.6-3.6,1-4.8
		s0.8-3,0.8-3.9s0.4-2.4,0.8-3.2c1.3-2.4,1.2-23.8-0.1-25.2c-0.7-0.7-0.9-1.5-1-3.6c-0.1-1.5-0.4-3.3-0.7-4.1
		c-0.3-0.8-0.7-2.4-0.8-3.7c-0.3-2.4-0.6-3.5-1-3.9c-0.5-0.4-2-3.8-2.6-5.9c-0.3-1.1-0.9-2.3-1.2-2.5c-0.3-0.3-0.6-0.8-0.6-1.1
		s-0.3-1.3-0.8-2.1c-0.4-0.8-1-1.9-1.2-2.5c-0.5-1.2-1.8-3.4-2.3-4.1c-0.2-0.3-0.5-0.9-0.7-1.4s-0.6-1.3-1-1.8
		c-2.7-3.3-4.4-5.6-4.4-6.1c0-0.3-0.2-0.6-0.4-0.7c-0.2-0.1-4.1-3.7-8.6-8.1c-5.3-5.1-9-8.4-10.3-9.1c-1.2-0.6-2.3-1.4-2.5-1.6
		c-0.5-0.7-2-1.4-2.8-1.4c-0.4,0-1.3-0.7-2.2-1.6c-1.1-1.2-2.1-1.7-3.7-2.2c-1.2-0.3-3-1-4-1.6c-3.6-2.1-5.8-3-6.9-3
		c-0.6,0-1.2-0.2-1.3-0.4c-0.1-0.2-1.3-0.7-2.5-1c-1.3-0.4-2.9-1-3.7-1.4s-2.5-0.8-3.9-0.9s-2.8-0.4-3.1-0.7
		c-0.3-0.3-2.1-0.6-3.9-0.7c-1.8-0.1-4-0.5-4.9-0.8C219.6,75.8,207.2,75.5,201.6,76 M222.7,84c1.3,0.4,3.2,0.8,4.3,0.8
		s2.8,0.3,3.6,0.7s2.9,0.8,4.5,0.9c2.2,0.2,3.1,0.5,3.8,1.1c1.1,1,3.1,1.9,5.6,2.5c1,0.2,2.9,1,4.2,1.7s2.8,1.5,3.4,1.6
		c0.5,0.1,1.7,0.9,2.6,1.7c0.9,0.8,2.3,1.6,3.1,1.9c0.9,0.3,2,1,2.5,1.8c0.7,0.9,1.3,1.3,2.1,1.3c1.5,0,2.8,1,5.3,4
		c1.2,1.4,2.3,2.7,2.6,2.7c0.2,0.1,1.8,1.5,3.5,3.2s3.6,3.5,4.2,4.1c1.3,1.1,3.1,3.8,3.5,5.1c0.1,0.5,0.9,1.4,1.7,1.9
		s1.8,1.8,2.2,2.7c0.4,0.9,1.2,2.4,1.7,3.4s1.1,2.1,1.2,2.5s1,2.2,2,4s1.9,3.9,2,4.6c0.1,0.7,0.6,1.8,1.1,2.4c0.5,0.7,0.9,1.7,0.9,3
		c0,1,0.4,2.7,0.7,3.7c0.3,1,0.6,3,0.6,4.5c0,2,0.2,3,1,4.3c1.8,3,1.8,21.4,0,23.8c-0.7,0.9-0.9,1.9-1,4.6c-0.1,1.9-0.4,3.7-0.6,4
		c-0.3,0.3-0.6,1.3-0.7,2.2s-0.7,2.5-1.2,3.5s-1,2.2-1,2.6c0,0.4-0.7,2.1-1.6,3.6c-0.9,1.6-2.1,3.9-2.8,5.3c-0.7,1.3-1.5,2.7-1.8,3
		c-0.3,0.4-0.6,1-0.6,1.3c0,0.4-1.1,1.9-2.5,3.4c-2.5,2.8-4,4.9-4.8,6.9c-0.3,0.6-0.9,1.2-1.4,1.3s-1.5,0.9-2.3,1.7
		c-0.7,0.8-2.6,2.6-4.2,4s-2.9,2.7-2.9,3c0,0.7-2.1,2.3-4.2,3.2c-2,0.9-3.9,2.1-4.3,2.8c-0.2,0.3-1.4,1-2.7,1.7
		c-1.3,0.7-2.5,1.4-2.6,1.6c-0.4,0.6-10.8,5.6-12.3,5.9c-0.8,0.1-2.2,0.8-3.3,1.4c-1.4,0.9-2.2,1.1-3.2,1c-0.7-0.1-2.1,0.1-3.1,0.4
		c-1,0.3-3.3,0.7-5.2,0.8c-2.1,0.1-3.7,0.5-4.1,0.8c-1.8,1.6-22,1.7-24.7,0.1c-0.9-0.5-2.1-0.8-3.6-0.8c-1.3,0-3.5-0.3-5.1-0.6
		c-1.5-0.3-3.2-0.6-3.6-0.6c-0.4,0-1.9-0.5-3.3-1.2c-1.4-0.7-2.9-1.2-3.4-1.2s-2.4-0.7-4.2-1.6c-1.8-0.9-3.6-1.6-3.9-1.6
		c-0.3,0-0.7-0.2-0.8-0.4s-1.1-0.8-2-1.2s-1.8-0.9-1.8-1.2c0-0.2-1.3-1-2.8-1.7s-2.8-1.5-2.8-1.7s-0.7-0.6-1.6-0.9
		c-1.4-0.4-3.5-2.2-9.2-7.8c-0.3-0.3-1.7-1.7-3.1-3.1c-1.4-1.4-3-2.7-3.7-3c-0.6-0.3-1.4-1-1.8-1.7c-0.3-0.6-0.9-1.4-1.2-1.7
		s-0.6-0.8-0.6-1.2s-0.8-1.6-1.7-2.7c-1-1.1-2.1-2.6-2.4-3.4c-0.4-0.8-1-1.8-1.4-2.2c-0.9-1.1-2.3-3.7-2.8-5.5
		c-0.3-0.8-0.6-1.5-0.8-1.5c-0.6,0-2.4-3.9-2.8-6.1c-0.2-1.1-0.7-2.4-1.1-2.8c-0.4-0.5-0.6-1.3-0.6-2.3c0-0.9-0.3-2.3-0.7-3.2
		c-0.5-0.9-1-3.1-1.2-5.1c-0.2-1.9-0.7-4.2-1-5.1c-0.9-2.4-0.9-19.3,0-21c0.3-0.7,0.8-2.6,1-4.3s0.6-3.6,0.8-4.3
		c0.3-0.7,0.6-2.3,0.8-3.7c0.2-1.9,0.5-2.7,1.2-3.1c0.5-0.3,0.8-1,0.8-1.7c0-1.8,0.8-4.2,2-5.9c0.6-0.9,1.7-2.9,2.4-4.4
		s1.9-3.5,2.6-4.5c0.8-0.9,1.4-1.9,1.4-2.1s0.5-1,1.1-1.6c2-2.1,2.5-2.8,2.7-3.9c0.3-1.1,1.7-2.6,6.4-7c0.2-0.2,1.9-1.8,3.7-3.5
		s3.5-3.3,3.8-3.6c0.3-0.3,1.1-1.1,1.8-1.9s1.7-1.4,2.1-1.4c0.4,0,1.3-0.5,2-1.2s1.8-1.3,2.3-1.4c0.6-0.1,1.9-1,2.9-1.8
		c1-0.9,2.4-1.7,3.1-1.8c0.7-0.1,1.5-0.6,1.9-1s0.9-0.8,1.3-0.8s1.2-0.3,1.8-0.8c0.7-0.4,2.1-0.9,3.2-1c1.2-0.2,2.2-0.6,2.6-1.1
		c0.7-0.8,4.5-2.1,7.7-2.6c1-0.2,2.4-0.6,3.2-1c1-0.5,2.2-0.7,4.3-0.7c1.8,0,3.3-0.2,4-0.6C199.4,82.8,219.7,82.9,222.7,84
		 M186.7,128c-1.8,0.2-2.5,0.4-3.2,1.3c-0.5,0.6-1.6,1.3-2.4,1.6c-0.8,0.3-1.6,0.8-1.7,1.2c-0.1,0.4-0.7,1-1.2,1.3
		c-0.5,0.4-1,1-1,1.5s-0.8,1.7-1.8,2.7s-1.8,2.1-1.8,2.5s-0.3,0.9-0.6,1.2s-0.9,1-1.2,1.7c-0.3,0.6-0.9,1.5-1.4,1.9
		c-0.4,0.4-0.8,1.3-0.8,1.9c0,0.6-0.3,1.5-0.6,1.9s-0.6,1.4-0.6,2.1c0,2.8-2.2,3.8-5.5,2.5c-4.9-1.9-7.9-1.1-5.3,1.5
		c1.6,1.6,1.2,5.3-0.6,5.3c-3.1,0-3.1,27.1,0.1,27.9c0.6,0.2,1,0.6,1.2,1.4c0.1,0.6,0.6,1.4,1.1,1.7c1.4,0.8,2.9,2.7,3.4,4.7
		c0.3,1,0.8,2.2,1.2,2.6c0.4,0.4,0.8,1.5,1,2.3s0.7,2.1,1.2,2.8s1,1.6,1,2c0,0.9,1.7,2.7,2.7,2.7c0.4,0,1.4,0.4,2.3,0.8
		c1.7,0.8,5.5,0.8,7.2-0.1c0.4-0.2,1.4-0.5,2.1-0.6c1.2-0.2,1.4-0.5,2.1-2.2c0.4-1.1,1.1-2.4,1.6-2.9c0.4-0.5,1-1.6,1.2-2.6
		s0.6-2,0.9-2.3c0.3-0.3,0.6-1.1,0.8-1.7c0.5-1.9,1.3-2,26.2-1.8c25.9,0.1,24.1-0.1,24.1,3.3c0,0.9,0.3,2.1,0.6,2.6
		c0.3,0.6,0.6,1.4,0.6,1.9c0,1,3.8,5,6.1,6.4c2.2,1.3,6.2,1,8.8-0.7c2-1.4,5.6-5,5.6-5.7c0-0.2,0.4-0.9,0.8-1.4
		c0.6-0.7,0.8-1.6,0.8-3.3c0-2.8,0.5-3.9,2.2-4.6c0.7-0.3,1.6-1,2.1-1.6c0.4-0.6,1.5-1.8,2.4-2.7c2.9-2.9,3.2-4.3,3.2-15.1
		c0-9.2,0-9.5-0.9-10.4c-0.5-0.5-1.2-1.6-1.5-2.5c-0.4-0.9-1-2-1.5-2.7l-0.8-1.1l1.3-1.6c0.7-0.9,1.5-1.6,1.6-1.6
		c0.2,0,0.3-0.3,0.3-0.7c0-0.6-0.1-0.6-0.6,0.1c-0.6,0.8-0.6,0.8-1.1,0.1c-0.9-1.2-3.1-1.3-4.4-0.2c-3,2.5-4.3,2.4-6.1-0.5
		c-0.7-1.1-1.3-2.2-1.3-2.4s-0.4-1-1-1.8s-1-2-1-2.8c0-0.7-0.3-1.5-0.6-1.8s-0.8-1.2-1-2.1c-0.2-0.9-0.6-1.9-0.9-2.3
		c-0.6-0.7-1.2-1.9-2.3-4.1c-1.2-2.4-3.9-5.1-5-5.1c-0.5,0-1.3-0.4-1.6-0.8c-0.6-0.7-1.2-0.8-5.9-1
		C229.7,127.9,189.5,127.8,186.7,128 M195.4,132.1c0.7-0.7,44.4-0.1,45.7,0.7c0.7,0.4,1.7,0.8,2.3,0.8c0.8,0,1.2,0.4,1.7,1.6
		c0.4,0.9,1.3,2.2,2,2.9s1.3,1.5,1.4,1.7c0,0.2,0.4,1,1,1.8c0.9,1.4,3.1,7,3.1,8.1c0,0.3,0.2,0.7,0.5,0.8c0.6,0.2,1.5,3.1,1.5,4.8
		c0,1.3-1.4,2.5-3.2,2.9c-0.8,0.1-1.8,0.6-2.3,1c-0.8,0.7-1.5,0.8-6,0.7c-4.3,0-5.4,0.1-7.4,0.8c-2.1,0.8-25.5,1.3-44.8,0.9
		c-0.6,0-1.9-0.4-3-0.8c-1.3-0.6-2.7-0.8-4.5-0.8c-2.1,0-2.8-0.2-3.4-0.8c-0.5-0.5-1.5-0.8-3.7-1c-4-0.4-5.1-1.7-4-5.1
		c0.4-1.2,0.9-2.2,1.2-2.4s0.5-0.8,0.5-1.3s0.7-2.4,1.6-4.1c0.9-1.7,2.2-4.4,3.1-6.1c0.8-1.6,1.7-3.1,2.1-3.3
		c0.3-0.2,0.7-0.8,0.9-1.3c0.2-0.6,0.7-1,1.2-1s1.5-0.4,2.2-0.8c0.7-0.5,1.7-0.7,2-0.6c0.4,0.1,1.8,0.1,3.1-0.1c1.3-0.2,3-0.2,3.7,0
		C194.6,132.2,195.2,132.2,195.4,132.1 M187,136.9c-0.4,0.3-1.2,0.7-1.8,0.8c-1.7,0.4-3.6,2.3-3.9,3.9c-0.2,1.3-0.2,1.4,0.4,0.8
		c0.6-0.5,0.8-0.5,1.4,0.1c1.5,1.4,7-3.5,6-5.4C188.7,136.3,188.1,136.2,187,136.9 M195,138.4c-2.1,1.5-13.4,12.6-13.4,13.1
		c0,0.8,1.3,2.2,2,2.2c0.8,0,3.2-1.8,3.2-2.4c0-0.5,1.9-2.4,4-4c1-0.8,2.4-2.1,3.2-3s2.3-2.4,3.3-3.5c2-2,2.3-2.9,1.3-3.3
		C197.4,137,196.5,137.2,195,138.4 M168.7,159.8c1.7,0.9,4.8,1.8,7.8,2.4c1.5,0.3,3.1,0.9,3.7,1.3c0.8,0.7,1.7,0.8,4.5,0.9
		c2,0,4,0.3,4.9,0.7c1,0.4,3.2,0.6,7.1,0.7c4.6,0.1,5.9,0.3,7,0.9c2.3,1.2,15.4,1.2,18.3-0.1c1.7-0.7,2.8-0.9,6.2-0.9
		c2.3,0,4.8-0.2,5.7-0.4s3.6-0.6,6-0.7c3.2-0.2,4.8-0.5,5.6-1s2-0.7,4.6-0.8c2.7,0,3.7-0.2,4.8-0.9c2.1-1.2,5-1.8,6.5-1.4
		c0.7,0.2,1.9,0.5,2.7,0.6c1.5,0.3,2.9,1.4,3.5,3.1c0.7,1.7,0.3,18.3-0.4,19.1c-0.3,0.4-0.7,1.2-0.9,1.9c-0.5,2-2.1,3.4-3.9,3.4
		c-1.2,0-1.6,0.2-2,0.9c-0.6,1.3-2.3,1.4-22.8,1.2c-31.1-0.3-64.8-0.1-65.6,0.4c-1.7,1-8.9-2-11.7-4.9l-1.8-1.9v-10.1v-10.1l1.4-1.4
		c0.8-0.8,2-1.6,2.8-1.9c0.8-0.3,1.8-0.7,2.2-1C166,159,167.3,159.1,168.7,159.8 M170.8,170.7c-2.3,0.9-3.8,3.4-4,6.3l-0.1,2.9
		l1.7,1.1c3.6,2.3,6.4,2.2,8.7-0.4c0.7-0.8,1.4-1.4,1.7-1.4c1,0,0.3-5-0.7-5.1c-0.5-0.1-0.9-0.4-0.9-0.8c0-1-1.2-1.9-3-2.2
		c-0.9-0.1-1.9-0.3-2.2-0.4C171.7,170.5,171.2,170.6,170.8,170.7 M249,170.8c-1.3,0.5-3.3,3.2-3.6,4.9c-1.3,6.8,10.4,9.2,12.7,2.6
		l0.8-2.3l-1.2-2.3C256.2,170.7,252.3,169.4,249,170.8 M203.1,175.2l-9.1,0.2l-1.1,1.1c-1,1-1,1.1-0.4,2.5c1,2,0.9,2,20.6,2
		c19.6,0,20.8-0.1,20.8-2.3c0-2.7-6-4-17.4-3.8C214.2,175,208.1,175.1,203.1,175.2 M254,175c0,0.7-1.8,2.6-2.4,2.6
		c-0.4,0-0.8-0.1-0.8-0.2s-0.1-0.4-0.2-0.7c-0.3-0.9,0.9-1.9,2.3-1.9C253.5,174.8,254,174.9,254,175 M174.2,176.2
		c0.3,1.3-0.2,1.8-1.3,1.5s-1.2-1.5-0.2-2.1C173.7,175,174,175.1,174.2,176.2 M183.1,195.3c1.4,1.4,0.6,6-1.5,8.8
		c-2.4,3.1-11.5,1.9-12.9-1.8c-0.3-0.9-0.9-1.9-1.2-2.2c-1.1-1.1,0.2-4.6,2-5.3C170.8,194.1,182.4,194.6,183.1,195.3 M253.7,194.7
		c3,0.3,3.5,0.8,3.5,3.9c0,6.7-7.7,9.7-12.6,5l-1.8-1.7l0.1-3.4l0.1-3.4l1.4-0.2C246.4,194.4,250.5,194.4,253.7,194.7 M122.8,228.7
		c-0.5,0.4-1.8,0.8-2.8,1s-2.2,0.7-2.6,1c-0.4,0.4-1.6,1.1-2.5,1.7c-4.5,2.6-6.5,3.8-7.5,4.7c-0.6,0.5-2.2,1.5-3.6,2.2
		c-1.3,0.7-3.3,1.8-4.4,2.6c-1.1,0.7-2.1,1.4-2.3,1.4c-0.2,0-1.5,0.9-2.9,1.9c-3.8,2.8-5.3,3.6-7,4.1c-0.9,0.2-1.6,0.6-1.6,0.7
		c0,0.2-0.7,0.7-1.5,1.3c-0.8,0.5-2.2,1.5-3,2.1s-3.1,1.9-5,3c-1.9,1-3.6,2-3.7,2.1s-0.8,0.6-1.6,1c-0.8,0.4-1.9,1.1-2.4,1.6
		c-0.9,0.8-3,2.1-6.1,3.7c-0.6,0.3-1.3,0.8-1.5,1.1c-0.3,0.3-0.7,0.6-1,0.6s-1.2,0.5-2.1,1.1c-0.9,0.6-2.2,1.4-2.9,1.7
		c-0.7,0.3-2.3,1.2-3.4,2.1s-2.3,1.5-2.5,1.5c-0.3,0-1.1,0.5-1.8,1.2s-1.8,1.4-2.3,1.6c-1.1,0.5-1.7,0.9-4.1,2.5
		c-0.9,0.6-1.8,1.1-2.1,1.1s-1.1,0.5-1.9,1.2c-0.8,0.7-2.6,1.7-4,2.4c-1.5,0.7-2.6,1.4-2.6,1.6s-0.9,0.8-1.9,1.4s-3,1.7-4.4,2.6
		s-3.5,2.1-4.8,2.8c-1.2,0.7-2.9,1.7-3.6,2.2c-0.7,0.5-1.4,1-1.6,1c-0.1,0-0.8,0.4-1.4,0.9c-0.6,0.5-1.6,1.2-2.3,1.5
		c-2,1.1-3.3,11.8-1.7,14.8c0.4,0.8,2.2,1.1,2.6,0.4c0.1-0.2,1.5-1.1,3.1-1.8c1.6-0.8,3.7-2,4.7-2.8c1-0.7,2-1.4,2.3-1.4
		c0.2,0,1.5-0.7,2.8-1.6s3-1.7,3.8-1.8c0.8-0.1,1.5-0.5,1.6-0.8s1.1-1.1,2.2-1.8c1.1-0.7,2-1.4,2-1.6c0-0.3,1.7-1.4,6.4-3.9
		c1.4-0.8,4.1-2.3,5.9-3.3c1.8-1.1,3.5-1.9,3.7-1.9s0.9-0.5,1.5-1.2c0.6-0.6,2.1-1.7,3.3-2.3c1.2-0.6,2.7-1.5,3.3-2s1.3-0.9,1.6-0.9
		s2.6-1.4,5.2-3.2c2.6-1.8,5-3.2,5.3-3.2c0.8,0,3.9-1.9,6.7-4c1.3-1,3.2-2.3,4.2-2.8s2.8-1.6,4-2.4s2.4-1.5,2.6-1.5
		c0.4,0,7.7-4.4,8.7-5.2c0.4-0.4,1.3-0.8,1.8-1s1.6-0.8,2.3-1.5s2.4-1.7,3.6-2.3c1.3-0.6,2.8-1.5,3.5-1.9c0.7-0.5,1.6-1.1,2.2-1.5
		s1.7-1.2,2.7-1.8c0.9-0.6,2.1-1.3,2.6-1.5s3.1-1.7,5.6-3.4c2.6-1.7,5.1-3.3,5.7-3.5c1.5-0.6,1.9-2.5,1.2-6.7
		C126.3,228.2,125.4,226.9,122.8,228.7"/>
</g>
</svg>
