<?xml version="1.0" standalone="no"?>
<!DOCTYPE svg PUBLIC "-//W3C//DTD SVG 20010904//EN"
 "http://www.w3.org/TR/2001/REC-SVG-20010904/DTD/svg10.dtd">
<svg version="1.0" xmlns="http://www.w3.org/2000/svg"
 width="1915.000000pt" height="1915.000000pt" viewBox="0 0 1915.000000 1915.000000"
 preserveAspectRatio="xMidYMid meet">
<metadata>
Created by potrace 1.14, written by Peter Selinger 2001-2017
</metadata>
<g transform="translate(0.000000,1915.000000) scale(0.100000,-0.100000)"
fill="#000000" stroke="none">
<path d="M9410 19138 c-58 -3 -136 -12 -175 -18 -38 -6 -86 -14 -105 -16 -19
-3 -125 -22 -235 -44 -110 -22 -218 -42 -240 -45 -32 -5 -244 -48 -350 -70
-21 -5 -297 -80 -500 -137 -208 -57 -310 -88 -380 -114 -39 -13 -74 -26 -80
-28 -5 -1 -30 -12 -55 -24 -25 -12 -57 -23 -71 -26 -14 -2 -81 -29 -147 -60
-66 -31 -124 -56 -128 -56 -3 0 -50 -24 -103 -52 -53 -29 -134 -68 -180 -86
-46 -19 -107 -48 -135 -64 -28 -17 -105 -57 -171 -90 -66 -33 -149 -79 -185
-103 -36 -23 -94 -57 -130 -74 -36 -18 -122 -73 -191 -124 -69 -51 -186 -133
-260 -182 -74 -50 -160 -116 -191 -147 -31 -32 -88 -77 -125 -101 -37 -24
-106 -75 -153 -113 -47 -38 -119 -96 -160 -128 -91 -70 -165 -140 -244 -230
-33 -36 -75 -76 -94 -88 -18 -11 -56 -48 -83 -82 -28 -33 -94 -106 -148 -161
-101 -105 -171 -186 -189 -221 -6 -11 -45 -58 -87 -105 -42 -46 -91 -104 -108
-129 -17 -25 -35 -49 -40 -55 -31 -38 -139 -193 -180 -260 -28 -44 -69 -98
-91 -120 -23 -22 -58 -74 -79 -115 -21 -41 -60 -109 -87 -152 -27 -42 -72
-118 -101 -170 -28 -51 -62 -107 -75 -125 -13 -17 -24 -40 -24 -50 0 -10 -20
-51 -44 -91 -24 -40 -59 -110 -77 -155 -41 -105 -84 -191 -119 -242 -16 -22
-36 -67 -45 -100 -16 -56 -84 -244 -106 -290 -21 -45 -172 -507 -184 -565 -19
-88 -69 -281 -84 -327 -20 -60 -25 -87 -37 -188 -7 -66 -7 -66 -29 -175 -1 -3
-4 -18 -8 -35 -3 -16 -9 -48 -12 -70 -3 -22 -7 -51 -10 -65 -5 -30 -14 -90
-21 -145 -3 -22 -12 -87 -20 -145 -9 -58 -19 -127 -22 -155 -14 -98 -4 -753
13 -925 2 -19 6 -87 10 -150 3 -63 8 -133 10 -155 2 -22 7 -76 10 -120 3 -44
7 -91 9 -105 3 -14 7 -52 11 -85 4 -33 17 -109 30 -170 13 -60 26 -135 29
-165 4 -30 9 -77 12 -105 3 -27 16 -90 29 -140 13 -49 31 -130 40 -180 25
-137 32 -169 50 -245 8 -32 34 -157 40 -190 12 -65 13 -180 3 -218 -17 -61
-45 -91 -126 -131 -43 -22 -94 -57 -114 -78 -41 -42 -82 -133 -92 -203 -7 -48
-9 -257 -2 -268 2 -4 7 -32 10 -62 14 -120 14 -119 54 -113 70 9 137 36 229
89 50 30 94 54 98 54 10 0 160 101 264 178 52 38 112 76 135 83 22 7 97 51
165 96 68 46 128 83 133 83 5 0 26 13 46 29 20 16 82 52 137 81 55 28 136 75
180 104 44 29 125 82 180 118 55 36 110 69 123 73 13 4 58 30 100 59 42 29
115 74 162 101 47 26 182 111 300 189 118 77 266 167 329 199 105 53 178 106
314 228 21 19 61 43 89 54 40 16 53 27 59 47 8 32 2 38 -67 70 -27 13 -75 40
-105 60 -161 107 -452 124 -589 33 -19 -12 -114 -69 -210 -125 -96 -56 -205
-120 -241 -141 -36 -22 -70 -39 -76 -39 -6 0 -39 -27 -74 -61 -34 -33 -81 -68
-103 -77 -78 -30 -188 -92 -278 -157 -49 -36 -107 -73 -127 -82 -20 -9 -54
-29 -76 -44 -23 -15 -59 -32 -80 -38 -39 -10 -127 -7 -146 4 -25 16 -94 220
-123 365 -3 14 -14 70 -25 125 -20 99 -27 140 -35 193 -3 15 -7 46 -11 70 -8
51 -11 70 -19 147 -4 33 -9 76 -11 95 -7 59 -25 195 -29 216 -2 10 -7 41 -10
67 -4 27 -9 57 -11 67 -18 92 -25 797 -11 1125 10 243 15 304 31 360 8 28 16
64 19 80 3 17 8 39 10 50 2 11 7 47 10 80 18 159 17 154 61 325 15 58 28 110
29 115 76 358 210 793 280 903 13 21 45 99 71 173 27 74 55 145 63 159 9 14
30 48 49 77 18 28 33 60 33 70 0 26 62 152 93 189 14 16 36 55 50 85 13 30 52
97 86 149 34 51 72 112 83 134 11 23 37 64 58 91 21 28 57 86 81 130 65 122
122 208 170 254 24 22 46 41 51 41 4 0 20 21 35 48 25 42 111 160 138 188 5 6
39 44 75 85 268 306 659 686 803 782 40 26 90 64 112 85 163 154 488 388 657
474 70 35 203 115 288 173 60 41 183 105 200 105 6 0 31 14 55 30 24 17 46 30
48 30 3 0 74 38 158 84 85 46 192 96 239 110 233 74 280 90 338 117 35 16 69
29 76 29 6 0 16 4 22 9 21 19 536 166 689 195 11 2 70 16 130 30 172 41 150
36 295 64 130 26 165 31 290 47 25 4 56 8 70 10 185 31 345 38 810 38 313 0
647 -8 725 -18 17 -2 57 -7 90 -10 33 -4 71 -8 85 -10 14 -1 54 -6 90 -9 72
-8 211 -25 250 -31 14 -3 43 -7 65 -10 109 -17 350 -69 440 -95 55 -16 114
-31 130 -33 130 -20 303 -75 720 -227 293 -107 359 -132 385 -149 30 -20 97
-51 110 -51 5 0 47 -22 92 -49 46 -27 108 -60 138 -74 30 -14 86 -39 125 -56
38 -18 83 -42 100 -55 16 -13 55 -36 85 -51 131 -66 632 -419 811 -571 48 -40
121 -96 164 -125 78 -52 181 -147 469 -434 141 -141 199 -202 371 -390 20 -22
65 -80 100 -130 67 -94 88 -120 160 -197 81 -87 125 -149 166 -236 22 -48 58
-109 78 -137 20 -27 52 -77 71 -110 18 -33 52 -87 75 -120 51 -73 139 -225
184 -320 111 -230 180 -389 194 -445 3 -14 25 -56 47 -93 23 -38 50 -97 60
-130 17 -57 52 -158 109 -312 12 -33 24 -67 26 -75 2 -8 19 -76 39 -150 42
-162 114 -490 132 -600 3 -19 7 -43 10 -52 6 -22 12 -53 20 -103 3 -22 9 -58
14 -80 8 -35 21 -126 34 -236 3 -20 8 -71 12 -115 3 -43 8 -92 10 -109 22
-227 22 -897 -1 -1135 -2 -25 -7 -79 -11 -120 -3 -41 -8 -88 -10 -105 -7 -61
-16 -131 -19 -155 -2 -14 -7 -45 -10 -70 -7 -48 -12 -81 -19 -118 -3 -13 -14
-78 -26 -145 -11 -67 -25 -142 -30 -167 -5 -25 -12 -63 -15 -85 -3 -22 -14
-71 -24 -110 -11 -38 -34 -140 -51 -225 -17 -86 -57 -233 -90 -330 -32 -96
-75 -236 -95 -310 -21 -74 -55 -174 -76 -221 -22 -48 -43 -109 -48 -136 -12
-60 -41 -139 -86 -232 -19 -39 -44 -98 -55 -130 -31 -95 -54 -147 -120 -286
-34 -71 -100 -213 -147 -315 -46 -101 -92 -196 -102 -210 -21 -30 -61 -116
-61 -130 0 -20 -128 -262 -142 -268 -5 -2 -8 -7 -8 -12 0 -4 -26 -52 -58 -107
-80 -135 -142 -251 -142 -267 0 -8 -15 -36 -33 -62 -18 -27 -58 -85 -88 -129
-31 -44 -78 -118 -107 -165 -28 -47 -68 -106 -90 -130 -21 -25 -51 -67 -66
-95 -15 -27 -54 -86 -86 -130 -33 -44 -60 -87 -60 -95 0 -18 -32 -73 -60 -102
-11 -12 -32 -40 -47 -62 -15 -23 -62 -90 -104 -151 -42 -60 -84 -126 -93 -146
-10 -20 -53 -83 -97 -140 -44 -57 -106 -139 -137 -182 -31 -43 -78 -104 -105
-135 -26 -31 -73 -91 -104 -132 -50 -66 -179 -226 -193 -240 -15 -14 -81 -101
-110 -145 -45 -67 -149 -195 -182 -223 -15 -13 -56 -62 -91 -110 -35 -48 -74
-96 -87 -107 -12 -11 -33 -36 -45 -56 -32 -50 -88 -114 -229 -260 -204 -214
-320 -340 -354 -388 -52 -73 -168 -197 -450 -481 -319 -320 -455 -461 -545
-562 -104 -116 -197 -210 -252 -253 -27 -22 -70 -62 -95 -90 -99 -110 -320
-323 -347 -334 -15 -6 -38 -27 -51 -45 -20 -29 -92 -100 -269 -264 -18 -16
-54 -47 -80 -68 -57 -47 -87 -76 -130 -128 -18 -22 -46 -47 -62 -57 -15 -9
-41 -35 -57 -56 -15 -22 -54 -59 -85 -83 -32 -24 -62 -54 -68 -66 -6 -13 -37
-45 -71 -70 -33 -26 -60 -50 -60 -54 0 -17 -84 -100 -124 -124 -56 -33 -145
-56 -188 -49 -48 7 -181 104 -278 203 -47 47 -116 113 -155 146 -38 32 -128
118 -200 189 -72 72 -187 182 -254 245 -149 138 -190 177 -256 239 -27 25 -84
75 -125 111 -103 89 -199 188 -265 270 -31 39 -68 76 -84 84 -36 19 -309 294
-742 750 -57 60 -182 190 -278 287 -95 98 -190 202 -212 231 -68 95 -98 132
-126 163 -16 17 -80 89 -143 160 -63 72 -140 157 -171 190 -31 33 -90 101
-132 150 -41 50 -105 124 -141 165 -36 41 -66 80 -66 86 0 7 -19 27 -42 45
-23 19 -52 44 -64 56 -52 52 -197 244 -316 418 -15 22 -41 56 -58 75 -29 33
-159 203 -240 315 -139 190 -182 246 -222 288 -26 27 -54 69 -64 96 -9 27 -39
80 -66 117 -27 38 -62 89 -78 114 -16 25 -49 65 -72 90 -24 25 -60 79 -82 120
-21 41 -48 87 -61 101 -51 61 -150 297 -142 339 13 66 55 114 137 156 30 16
72 43 92 61 21 18 79 53 129 78 51 25 108 58 128 74 20 15 72 47 116 71 96 52
116 64 315 195 158 105 368 235 377 235 2 0 30 20 62 44 54 42 89 62 171 100
19 9 80 53 135 97 55 44 137 98 182 120 45 22 86 46 91 52 59 73 1 454 -79
522 -32 26 -39 29 -79 25 -34 -3 -61 -18 -107 -60 -21 -20 -76 -55 -123 -79
-149 -76 -361 -201 -455 -268 -32 -24 -63 -43 -68 -43 -5 0 -30 -17 -56 -38
-25 -21 -90 -62 -144 -90 -127 -68 -259 -152 -311 -198 -23 -20 -68 -49 -101
-64 -33 -15 -109 -57 -169 -94 -60 -36 -114 -66 -119 -66 -5 0 -28 -17 -52
-38 -23 -20 -60 -46 -81 -57 -22 -10 -79 -47 -129 -81 -49 -34 -110 -71 -135
-84 -25 -13 -72 -42 -105 -65 -33 -24 -103 -63 -155 -88 -52 -25 -108 -59
-125 -74 -43 -41 -166 -120 -271 -174 -50 -26 -121 -70 -158 -98 -37 -28 -72
-51 -79 -51 -7 0 -28 -14 -47 -31 -19 -17 -64 -47 -100 -67 -66 -37 -263 -172
-312 -214 -14 -13 -37 -44 -50 -68 -21 -41 -23 -57 -23 -185 0 -195 15 -324
41 -346 28 -23 201 46 339 136 44 28 105 66 135 84 30 18 77 50 104 71 61 48
250 156 327 187 124 50 185 34 274 -74 31 -37 79 -105 108 -151 102 -164 206
-317 232 -345 14 -15 45 -60 67 -100 60 -106 148 -233 240 -349 45 -57 125
-157 178 -223 121 -151 143 -181 166 -226 10 -20 56 -76 100 -125 45 -49 95
-105 110 -124 16 -19 31 -37 34 -40 3 -3 27 -39 52 -80 26 -41 64 -93 86 -115
21 -22 86 -96 143 -165 57 -69 111 -132 119 -140 8 -8 53 -62 99 -120 77 -95
184 -220 236 -275 33 -34 100 -112 136 -156 99 -123 138 -169 203 -237 39 -41
85 -89 101 -106 17 -18 55 -61 85 -96 90 -106 156 -175 333 -349 92 -91 187
-190 210 -219 23 -30 82 -85 130 -123 63 -50 100 -89 131 -137 24 -37 72 -92
107 -122 35 -30 138 -128 229 -217 314 -307 388 -378 471 -458 85 -81 188
-170 271 -235 25 -19 67 -66 94 -103 26 -37 66 -85 89 -105 22 -20 63 -57 90
-81 46 -40 207 -191 346 -323 30 -29 78 -73 105 -97 27 -24 109 -100 183 -170
197 -187 257 -227 342 -234 54 -5 111 18 193 78 63 45 71 52 224 193 49 46
107 97 128 115 47 40 71 63 264 247 203 194 217 206 272 241 27 18 58 49 73
75 34 58 140 171 179 191 17 9 126 109 241 224 392 387 659 645 704 679 4 3
23 27 43 53 57 76 102 122 149 154 51 35 144 129 493 498 187 197 226 240 270
299 21 27 54 61 74 74 46 30 143 142 194 221 20 32 53 69 72 81 20 12 46 36
58 53 33 48 307 368 413 482 123 133 147 163 178 211 14 22 44 58 66 80 23 21
55 61 70 89 32 56 90 132 168 221 90 102 103 118 122 158 11 21 41 63 68 93
26 31 71 84 98 119 179 228 275 355 298 396 15 26 33 51 40 55 22 14 63 75
107 161 23 46 61 106 84 135 36 45 292 415 367 532 64 99 170 278 214 360 26
50 74 125 105 167 33 44 70 109 86 150 15 40 58 123 94 183 37 61 79 133 93
161 14 28 41 71 60 96 19 25 38 56 42 69 5 13 29 69 55 124 26 55 66 150 88
210 22 61 63 156 91 212 28 56 51 106 51 111 0 13 51 132 102 241 22 47 42 94
44 105 2 11 16 41 32 66 15 25 34 61 42 80 7 19 24 53 36 75 13 22 25 51 28
65 3 14 7 36 10 50 3 14 8 39 12 55 15 79 58 203 80 232 28 37 42 72 50 122
10 66 23 115 59 231 51 162 92 313 126 470 39 177 68 289 84 320 15 28 30 109
40 210 12 116 13 124 24 185 5 33 17 119 26 190 9 72 18 141 20 155 17 108 37
284 42 380 11 204 4 813 -12 1035 -2 28 -6 91 -10 140 -6 88 -8 110 -20 230
-8 78 -9 86 -50 315 -19 107 -38 211 -41 230 -18 105 -45 219 -98 410 -14 52
-28 113 -31 135 -16 106 -184 576 -307 855 -110 250 -359 742 -445 882 -50 80
-99 160 -107 177 -9 17 -41 58 -71 92 -30 33 -73 95 -95 137 -23 42 -50 86
-60 97 -10 11 -50 67 -88 125 -39 58 -81 116 -94 130 -13 14 -34 39 -46 55
-13 17 -42 50 -66 75 -23 25 -55 63 -71 85 -16 22 -74 87 -130 144 -117 121
-106 109 -173 190 -29 35 -70 76 -90 91 -21 15 -74 67 -117 115 -44 48 -93
100 -110 116 -48 45 -276 231 -418 341 -73 56 -180 139 -239 185 -58 45 -117
87 -130 92 -13 5 -48 30 -78 55 -120 99 -223 168 -341 229 -68 36 -140 74
-159 85 -19 12 -107 58 -195 103 -88 44 -164 85 -170 89 -18 14 -229 118 -295
145 -36 15 -99 43 -140 62 -99 46 -188 80 -228 86 -17 3 -53 17 -79 32 -49 27
-159 72 -197 79 -51 11 -177 47 -246 71 -154 54 -804 210 -965 231 -22 3 -71
12 -110 21 -136 29 -201 42 -250 47 -104 13 -171 22 -230 33 -44 8 -1242 9
-1365 1z"/>
<path d="M9649 16256 c-2 -2 -29 -6 -59 -9 -68 -7 -108 -15 -129 -26 -16 -8
-70 -17 -161 -25 -96 -9 -148 -18 -215 -36 -38 -11 -92 -22 -119 -25 -71 -8
-97 -15 -132 -36 -18 -11 -67 -28 -110 -39 -44 -11 -105 -31 -136 -46 -32 -14
-79 -28 -105 -31 -27 -3 -60 -14 -74 -24 -64 -45 -315 -160 -422 -193 -9 -3
-21 -16 -26 -29 -14 -36 -157 -117 -180 -102 -4 2 -37 -20 -75 -50 -37 -30
-88 -66 -114 -81 -111 -65 -215 -158 -574 -517 -109 -108 -205 -212 -214 -230
-14 -28 -81 -113 -122 -156 -8 -8 -29 -46 -48 -85 -19 -39 -62 -115 -97 -168
-54 -84 -94 -152 -169 -283 -10 -16 -25 -46 -33 -65 -8 -19 -23 -46 -34 -60
-11 -14 -22 -49 -25 -79 -9 -76 -50 -194 -96 -275 -44 -76 -51 -96 -80 -246
-12 -58 -23 -114 -26 -125 -2 -11 -7 -63 -9 -115 -6 -114 -12 -143 -36 -192
-38 -74 -51 -172 -54 -408 -3 -279 14 -437 55 -520 22 -43 29 -94 34 -231 3
-67 10 -117 19 -135 21 -42 30 -89 33 -169 1 -38 2 -78 3 -89 1 -10 21 -37 45
-60 57 -53 80 -100 105 -213 21 -99 37 -137 94 -225 21 -32 35 -58 31 -58 -7
0 4 -19 93 -160 33 -52 65 -111 73 -130 7 -19 33 -62 57 -95 24 -33 76 -109
115 -170 62 -95 106 -145 332 -371 144 -143 277 -271 296 -285 19 -13 58 -46
85 -74 28 -27 91 -77 140 -110 49 -32 109 -79 133 -102 24 -24 49 -43 55 -43
10 0 80 -38 232 -124 30 -17 89 -59 96 -68 3 -4 41 -17 85 -28 43 -11 124 -42
179 -70 56 -28 115 -53 134 -56 18 -3 75 -21 127 -40 52 -19 103 -34 113 -34
10 0 37 -13 62 -29 30 -20 68 -33 119 -41 41 -7 102 -18 135 -25 87 -20 136
-26 238 -30 106 -4 131 -12 181 -55 l36 -32 457 4 c401 4 463 7 497 22 22 9
105 30 185 46 144 29 166 33 246 46 22 3 42 7 45 9 3 2 37 6 75 10 39 4 77 9
85 10 8 2 28 4 43 4 18 1 38 12 55 30 15 17 45 37 67 46 22 9 63 27 90 40 28
13 70 26 95 30 25 4 88 28 140 55 52 26 121 53 152 59 31 7 67 20 80 30 13 10
59 39 103 64 44 25 107 66 140 91 32 25 104 70 160 102 166 94 257 167 454
363 184 183 414 402 473 451 17 14 39 32 48 40 10 9 23 34 29 57 6 23 40 81
75 130 35 48 76 113 91 143 15 30 40 73 55 95 37 54 69 118 91 184 11 30 37
82 58 116 54 82 108 202 127 277 8 35 26 83 38 108 24 44 30 67 41 145 11 80
16 101 40 185 24 82 28 101 40 202 3 25 12 63 21 83 35 83 47 237 45 570 -2
345 -11 452 -47 513 -18 30 -27 62 -29 105 -6 95 -15 146 -36 217 -11 36 -24
97 -30 137 -18 127 -23 146 -54 188 -22 29 -89 187 -107 251 -4 17 -22 51 -38
75 -16 24 -30 51 -30 59 0 21 -123 271 -158 323 -16 23 -38 62 -49 87 -11 25
-63 100 -116 167 -52 67 -100 138 -107 158 -6 19 -15 35 -18 35 -8 0 -58 47
-327 306 -104 100 -204 195 -221 211 -18 15 -52 46 -76 68 -71 64 -130 110
-181 139 -26 16 -68 45 -93 66 -26 21 -66 43 -91 49 -30 8 -62 28 -102 66 -68
61 -90 74 -184 104 -71 23 -101 37 -247 113 -87 46 -133 64 -185 71 -16 3 -46
14 -65 25 -19 11 -62 28 -95 37 -33 9 -89 29 -125 44 -71 30 -114 41 -234 56
-27 3 -57 10 -66 15 -27 14 -98 28 -180 35 -41 4 -106 13 -145 21 -150 32
-201 36 -526 40 -184 3 -337 3 -340 0z m496 -310 c225 -7 281 -12 377 -36 42
-11 100 -22 130 -25 128 -13 149 -16 182 -30 40 -17 100 -31 171 -39 101 -12
121 -16 148 -27 15 -6 27 -15 27 -19 0 -15 123 -72 208 -97 48 -13 146 -54
218 -89 71 -35 134 -64 139 -64 4 0 42 -25 83 -56 41 -31 102 -69 136 -84 34
-16 84 -51 113 -79 30 -30 61 -51 75 -52 71 -2 113 -33 233 -174 33 -38 76
-83 95 -100 45 -39 233 -219 329 -316 52 -52 89 -101 118 -155 25 -47 68 -105
105 -144 37 -38 78 -94 98 -135 20 -38 53 -104 74 -145 21 -41 68 -136 106
-210 37 -74 77 -163 89 -198 11 -35 34 -88 51 -117 20 -35 32 -72 36 -112 3
-32 12 -85 20 -118 29 -115 34 -148 40 -244 4 -75 11 -109 34 -161 16 -36 32
-88 36 -115 3 -28 8 -59 11 -70 3 -11 6 -139 8 -285 3 -304 -10 -444 -50 -525
-31 -65 -33 -75 -40 -170 -7 -96 -22 -184 -34 -199 -4 -6 -16 -45 -26 -86 -10
-41 -30 -102 -45 -136 -15 -33 -35 -87 -45 -120 -20 -69 -160 -343 -241 -471
-19 -29 -36 -63 -39 -76 -6 -24 -41 -71 -178 -239 -37 -45 -85 -117 -107 -159
-33 -64 -46 -79 -84 -99 -25 -13 -74 -53 -109 -89 -35 -36 -111 -110 -170
-164 -59 -54 -107 -104 -107 -111 0 -29 -73 -82 -215 -155 -44 -23 -101 -61
-128 -85 -26 -24 -83 -62 -126 -85 -44 -23 -93 -52 -108 -65 -56 -47 -533
-270 -533 -250 0 3 -43 -18 -96 -45 -83 -44 -103 -50 -152 -50 -31 0 -88 -6
-127 -15 -90 -20 -112 -24 -193 -31 -93 -9 -173 -23 -186 -34 -17 -14 -86 -30
-156 -36 -36 -3 -81 -8 -100 -10 -39 -5 -472 -5 -535 -1 -103 8 -173 19 -210
33 -78 29 -139 43 -189 42 -54 -1 -87 4 -206 26 -41 8 -97 17 -125 21 -27 3
-96 26 -152 50 -57 23 -120 46 -140 50 -47 8 -102 30 -213 82 -47 22 -99 44
-115 48 -17 3 -39 15 -50 25 -11 10 -41 27 -67 39 -25 11 -64 35 -86 53 -22
19 -78 53 -123 77 -46 24 -102 58 -123 77 -22 18 -45 33 -51 33 -45 0 -146 85
-400 335 -99 97 -215 202 -258 232 -50 36 -84 68 -97 92 -10 21 -26 43 -35 51
-9 7 -28 38 -42 69 -15 31 -40 70 -55 86 -16 17 -49 62 -75 100 -26 39 -68
102 -94 141 -49 73 -99 172 -118 235 -7 20 -23 47 -37 60 -33 31 -78 130 -109
239 -14 49 -36 109 -49 134 -16 30 -24 62 -24 94 -1 27 -10 76 -22 108 -29 80
-49 152 -54 200 -8 80 -18 140 -28 179 -6 22 -12 51 -15 64 -2 14 -6 28 -9 32
-16 27 -25 559 -12 730 4 41 15 106 27 145 20 68 24 87 36 189 4 28 17 91 30
140 13 50 27 113 30 140 10 76 25 117 56 153 19 21 29 44 29 63 0 74 36 169
106 281 13 20 44 78 69 129 54 110 74 143 132 223 24 32 43 63 43 70 0 6 30
45 66 86 38 42 79 103 96 138 30 66 93 133 353 377 71 66 180 170 243 232 73
71 125 114 144 118 15 4 52 25 81 47 28 22 76 50 105 63 29 13 78 44 110 69
48 37 112 76 132 81 42 11 62 21 81 41 12 13 27 24 32 24 5 0 44 15 86 34 42
19 104 40 139 47 35 6 79 23 98 36 72 48 199 95 299 110 51 7 108 24 167 49
35 15 87 26 130 29 167 12 189 15 205 24 30 15 81 21 263 27 96 4 176 7 177 8
2 2 20 1 40 0 21 -2 119 -5 218 -8z"/>
<path d="M9005 14085 c-5 -2 -27 -6 -47 -10 -21 -3 -55 -21 -79 -41 -24 -20
-68 -49 -98 -64 -64 -33 -148 -122 -178 -190 -11 -25 -44 -72 -73 -104 -29
-33 -60 -79 -70 -102 -10 -23 -23 -45 -29 -48 -11 -7 -95 -129 -120 -175 -8
-14 -16 -41 -18 -61 -2 -19 -13 -50 -23 -67 -11 -18 -21 -55 -24 -82 -13 -132
-76 -157 -250 -102 -139 45 -216 48 -236 11 -7 -13 -3 -26 15 -51 42 -59 55
-87 59 -130 5 -60 -10 -95 -48 -113 -18 -9 -38 -22 -45 -30 -19 -23 -50 -184
-57 -301 -12 -190 -6 -517 12 -608 2 -12 6 -39 9 -62 13 -91 38 -147 75 -170
26 -16 40 -35 48 -63 8 -27 24 -49 45 -63 64 -43 117 -121 147 -214 7 -22 26
-60 41 -85 15 -25 34 -68 42 -96 17 -56 51 -129 66 -139 5 -3 17 -30 25 -60
19 -63 66 -108 130 -124 23 -5 67 -19 98 -30 77 -28 184 -24 296 12 46 15 89
27 96 27 19 0 50 40 76 100 13 30 38 75 56 100 18 25 39 70 48 100 9 30 27 78
41 105 13 28 31 67 39 87 27 68 50 70 901 69 709 -1 1016 -6 1086 -16 70 -11
99 -30 99 -68 2 -75 10 -125 29 -167 11 -25 21 -55 21 -67 0 -38 116 -172 214
-246 102 -77 239 -86 366 -24 77 38 238 187 269 250 12 23 32 61 45 83 18 33
24 59 25 125 3 111 24 156 90 193 27 14 64 43 81 64 18 20 58 64 90 97 136
143 141 165 146 635 2 195 -1 372 -5 392 -5 21 -21 52 -36 70 -16 18 -40 58
-55 90 -15 31 -41 79 -59 107 -39 60 -38 62 48 150 28 29 51 59 51 67 0 21
-16 17 -32 -8 l-15 -22 -32 27 c-63 53 -115 48 -209 -18 -35 -24 -77 -47 -93
-50 -57 -13 -108 40 -185 190 -22 44 -49 95 -58 113 -19 36 -24 53 -25 93 -1
14 -12 42 -25 61 -13 19 -31 59 -41 89 -9 30 -32 79 -50 109 -18 30 -49 87
-69 125 -67 130 -176 245 -232 245 -12 0 -36 11 -52 25 -44 37 -71 44 -199 50
-124 7 -2141 16 -2158 10z m1425 -170 c206 -3 420 -8 475 -10 318 -13 334 -15
385 -35 28 -11 61 -20 74 -20 26 0 53 -28 81 -82 10 -20 43 -65 72 -100 30
-35 63 -81 74 -103 11 -22 33 -67 50 -100 37 -72 82 -190 99 -263 7 -30 18
-56 26 -59 18 -7 50 -96 59 -164 7 -53 5 -58 -25 -93 -23 -26 -48 -41 -89 -52
-65 -19 -121 -45 -121 -55 0 -15 -64 -22 -245 -25 -104 -1 -199 -5 -210 -7
-11 -3 -47 -12 -80 -20 -135 -35 -488 -47 -1342 -48 l-552 0 -88 30 c-114 38
-123 40 -220 42 -66 1 -89 6 -115 24 -41 27 -87 42 -158 50 -81 9 -126 23
-157 50 -25 21 -28 30 -27 82 1 61 26 132 64 180 11 14 20 35 20 47 0 11 9 46
21 76 36 95 218 444 257 493 20 25 45 58 55 72 11 15 28 25 43 25 13 0 48 12
77 27 40 21 70 28 132 31 85 4 227 6 260 3 21 -2 264 9 277 12 13 3 425 -1
828 -8z m-2144 -1171 c79 -33 199 -69 264 -80 54 -9 166 -47 190 -64 32 -23
62 -28 192 -35 115 -6 121 -7 188 -25 74 -20 113 -24 388 -35 114 -5 155 -12
227 -38 56 -21 173 -30 358 -29 211 1 305 12 409 48 56 20 94 25 230 29 90 3
174 7 188 10 13 2 42 7 65 10 22 3 67 10 100 15 33 5 100 12 149 15 117 8 177
20 227 45 29 15 66 23 128 26 182 9 202 13 275 48 98 48 188 63 263 46 32 -8
67 -15 78 -17 85 -13 152 -70 174 -147 11 -42 8 -595 -4 -696 -4 -30 -15 -71
-24 -90 -10 -19 -24 -53 -31 -75 -27 -83 -81 -129 -160 -138 -59 -6 -78 -15
-85 -38 -16 -51 -93 -56 -760 -53 -1463 8 -2632 3 -2835 -12 -182 -14 -207
-10 -345 51 -86 39 -182 105 -244 170 l-54 56 1 282 c0 155 1 344 1 420 l1
138 51 50 c55 54 220 142 276 147 19 1 66 -12 119 -34z m324 -1438 c80 -3 156
-8 170 -11 69 -13 81 -18 91 -38 31 -57 -3 -235 -60 -314 -57 -79 -121 -104
-255 -98 -77 3 -94 6 -141 25 -11 4 -33 13 -50 19 -47 18 -89 61 -119 121 -15
30 -34 62 -42 71 -21 24 -17 89 10 139 35 66 62 82 148 88 40 2 75 5 76 7 2 2
9 2 15 0 7 -2 77 -6 157 -9z m3144 0 c110 -8 158 -23 177 -57 6 -13 12 -57 12
-99 0 -129 -55 -224 -166 -282 -34 -18 -58 -23 -127 -23 -89 0 -149 19 -196
61 -12 11 -40 36 -63 57 l-42 38 3 144 3 143 30 7 c17 3 68 9 115 12 47 3 86
6 87 7 2 1 17 1 35 0 18 -1 77 -5 132 -8z"/>
<path d="M9015 13709 c-22 -12 -57 -28 -77 -35 -80 -28 -158 -118 -158 -182 0
-25 3 -26 29 -10 15 9 26 8 52 -4 33 -17 48 -14 107 16 56 29 134 120 146 169
8 36 -9 67 -37 67 -12 0 -40 -10 -62 -21z"/>
<path d="M9408 13686 c-43 -23 -65 -40 -146 -113 -109 -98 -447 -434 -459
-458 -9 -15 -7 -25 9 -48 11 -15 30 -35 43 -43 21 -14 27 -13 62 5 52 28 64
39 100 91 33 48 79 93 183 180 36 30 80 71 98 90 19 19 68 71 111 115 130 136
143 162 96 183 -34 16 -64 15 -97 -2z"/>
<path d="M11649 12315 c-75 -20 -121 -61 -171 -157 -30 -57 -32 -159 -3 -203
73 -110 215 -155 362 -114 66 18 124 80 157 167 l27 71 -37 71 c-20 39 -55 86
-77 105 -67 58 -171 82 -258 60z m161 -198 c0 -26 -75 -97 -102 -97 -28 0 -44
33 -32 65 14 36 134 65 134 32z"/>
<path d="M8320 12292 c-44 -24 -103 -101 -120 -155 -7 -23 -14 -67 -16 -97 -3
-30 -6 -70 -9 -88 -3 -30 0 -35 53 -69 79 -51 174 -82 230 -77 53 5 114 38
161 89 19 20 45 44 59 53 23 15 24 20 19 86 -6 82 -20 118 -50 131 -12 6 -26
24 -31 41 -13 44 -61 72 -150 89 -98 19 -104 19 -146 -3z m159 -196 c7 -8 11
-30 9 -48 -3 -30 -6 -33 -38 -33 -29 0 -36 5 -44 27 -8 23 -6 31 14 48 27 24
43 25 59 6z"/>
<path d="M9917 12123 c-3 -2 -553 -16 -589 -15 -9 0 -35 -19 -58 -44 -44 -48
-45 -59 -11 -119 22 -40 50 -52 145 -62 111 -13 1396 -8 1470 6 79 14 106 33
106 74 0 72 -75 118 -230 142 -25 4 -54 10 -65 13 -19 5 -763 10 -768 5z"/>
<path d="M6356 9895 c-22 -13 -75 -33 -118 -45 -54 -14 -99 -35 -141 -65 -34
-23 -107 -69 -162 -100 -55 -32 -142 -87 -193 -122 -51 -35 -139 -89 -195
-120 -56 -31 -132 -76 -168 -99 -37 -23 -84 -51 -105 -62 -22 -11 -91 -57
-154 -102 -122 -87 -200 -131 -265 -149 -22 -6 -56 -25 -75 -41 -95 -82 -215
-160 -440 -284 -98 -55 -231 -138 -283 -179 -20 -16 -87 -57 -149 -92 -62 -35
-126 -75 -142 -89 -16 -14 -34 -26 -41 -26 -6 0 -41 -19 -76 -41 -35 -23 -91
-55 -124 -72 -33 -16 -95 -54 -139 -84 -43 -30 -93 -61 -112 -69 -19 -8 -60
-34 -92 -58 -31 -24 -77 -54 -102 -67 -25 -13 -79 -47 -120 -74 -41 -28 -91
-57 -110 -65 -19 -7 -64 -35 -99 -61 -36 -26 -105 -68 -155 -92 -50 -25 -108
-60 -128 -79 -20 -19 -55 -43 -77 -53 -23 -10 -41 -22 -41 -27 0 -4 -5 -8 -11
-8 -6 0 -57 -28 -113 -63 -55 -35 -144 -87 -196 -117 -52 -29 -120 -70 -152
-92 -31 -22 -70 -47 -86 -56 -16 -9 -59 -37 -96 -62 -51 -35 -70 -55 -86 -92
-34 -78 -52 -186 -56 -329 -4 -145 9 -222 43 -246 26 -20 71 -15 106 11 18 13
73 45 122 71 50 26 128 72 175 103 47 30 103 63 125 72 22 10 78 41 124 68 47
28 106 57 133 64 31 8 62 25 86 48 20 20 65 55 100 78 34 24 62 46 62 51 0 7
103 81 113 81 3 0 193 104 257 141 14 8 33 20 43 28 9 8 17 10 17 6 0 -4 8 -1
18 7 22 19 168 101 207 116 17 7 52 32 78 56 27 24 75 59 109 77 33 19 90 54
126 77 37 24 90 55 117 69 28 14 124 73 215 132 91 58 176 111 190 117 14 6
50 22 80 35 30 13 120 71 200 127 80 57 174 120 210 140 36 20 101 59 145 87
44 28 108 66 142 83 71 36 183 102 298 177 44 29 100 63 125 75 25 12 68 39
95 60 28 21 102 66 165 101 63 34 170 99 236 145 67 45 160 103 207 128 48 25
158 93 245 150 88 57 177 113 198 124 21 11 47 29 58 40 31 35 35 123 11 278
-42 267 -79 321 -179 259z"/>
</g>
</svg>
